<svg width="128" height="128" viewBox="0 0 128 128" fill="none" xmlns="http://www.w3.org/2000/svg">
<path fill-rule="evenodd" clip-rule="evenodd" d="M64.0001 5.10254C30.6531 5.10254 3.61206 32.1375 3.61206 65.4905C3.61206 92.1725 20.9151 114.808 44.9091 122.794C47.9261 123.354 49.0341 121.484 49.0341 119.889C49.0341 118.449 48.9781 113.692 48.9521 108.646C32.1521 112.299 28.6071 101.521 28.6071 101.521C25.8601 94.5405 21.9021 92.6845 21.9021 92.6845C16.4221 88.9365 22.3151 89.0145 22.3151 89.0145C28.3781 89.4395 31.5721 95.2375 31.5721 95.2375C36.9581 104.468 45.6991 101.8 49.1451 100.258C49.6871 96.3545 51.2521 93.6895 52.9791 92.1815C39.5661 90.6565 25.4651 85.4775 25.4651 62.3385C25.4651 55.7455 27.8251 50.3585 31.6881 46.1285C31.0601 44.6085 28.9931 38.4665 32.2721 30.1485C32.2721 30.1485 37.3421 28.5255 48.8821 36.3385C53.7001 34.9995 58.8671 34.3265 64.0001 34.3035C69.1301 34.3265 74.3001 34.9975 79.1271 36.3365C90.6531 28.5235 95.7171 30.1465 95.7171 30.1465C99.0041 38.4635 96.9371 44.6065 96.3101 46.1265C100.182 50.3565 102.525 55.7435 102.525 62.3365C102.525 85.5305 88.3981 90.6365 74.9511 92.1325C77.1181 94.0065 79.0481 97.6825 79.0481 103.316C79.0481 111.396 78.9781 117.899 78.9781 119.888C78.9781 121.495 80.0661 123.378 83.1261 122.785C107.106 114.791 124.389 92.1625 124.389 65.4905C124.388 32.1395 97.3501 5.10354 64.0001 5.10354V5.10254Z" fill="#2DBA4E"/>
<path d="M26.4841 91.8054C26.3511 92.1054 25.8791 92.1954 25.4491 91.9904C25.0091 91.7944 24.7641 91.3854 24.9061 91.0844C25.0361 90.7744 25.5091 90.6894 25.9461 90.8964C26.3861 91.0934 26.6361 91.5064 26.4831 91.8064L26.4841 91.8054ZM28.9301 94.5344C28.6431 94.8014 28.0801 94.6774 27.6981 94.2544C27.3021 93.8344 27.2281 93.2714 27.5211 93.0004C27.8191 92.7344 28.3651 92.8604 28.7611 93.2804C29.1551 93.7064 29.2331 94.2644 28.9311 94.5354L28.9301 94.5344ZM31.3121 98.0114C30.9421 98.2694 30.3361 98.0284 29.9621 97.4914C29.5921 96.9534 29.5921 96.3084 29.9721 96.0514C30.3451 95.7934 30.9421 96.0264 31.3221 96.5584C31.6901 97.1034 31.6901 97.7484 31.3121 98.0104V98.0114ZM34.5731 101.372C34.2431 101.737 33.5371 101.639 33.0211 101.142C32.4941 100.655 32.3471 99.9624 32.6781 99.5984C33.0141 99.2324 33.7231 99.3344 34.2421 99.8284C34.7691 100.314 34.9281 101.008 34.5751 101.371L34.5731 101.372ZM39.0731 103.323C38.9261 103.796 38.2481 104.011 37.5631 103.809C36.8801 103.602 36.4331 103.049 36.5731 102.571C36.7131 102.094 37.3961 101.871 38.0851 102.086C38.7681 102.292 39.2151 102.842 39.0731 103.323ZM44.0161 103.684C44.0331 104.182 43.4531 104.594 42.7361 104.604C42.0131 104.621 41.4281 104.217 41.4211 103.727C41.4211 103.224 41.9891 102.817 42.7111 102.803C43.4281 102.79 44.0171 103.19 44.0171 103.683L44.0161 103.684ZM48.6141 102.902C48.7001 103.387 48.2011 103.886 47.4881 104.019C46.7881 104.149 46.1381 103.847 46.0481 103.366C45.9621 102.868 46.4701 102.369 47.1701 102.24C47.8841 102.117 48.5241 102.41 48.6141 102.903V102.902Z" fill="#2DBA4E"/>
</svg>
